<?xml version="1.0" encoding="UTF-8" standalone="no"?>
<!-- Created with Inkscape (http://www.inkscape.org/) -->

<svg
   xmlns:dc="http://purl.org/dc/elements/1.1/"
   xmlns:cc="http://creativecommons.org/ns#"
   xmlns:rdf="http://www.w3.org/1999/02/22-rdf-syntax-ns#"
   xmlns:svg="http://www.w3.org/2000/svg"
   xmlns="http://www.w3.org/2000/svg"
   xmlns:sodipodi="http://sodipodi.sourceforge.net/DTD/sodipodi-0.dtd"
   xmlns:inkscape="http://www.inkscape.org/namespaces/inkscape"
   version="1.1"
   id="svg10"
   width="405"
   height="270"
   viewBox="0 0 405 270"
   sodipodi:docname="sprite_advantage.svg"
   inkscape:version="0.92.0 r15299">
  <metadata
     id="metadata16">
    <rdf:RDF>
      <cc:Work
         rdf:about="">
        <dc:format>image/svg+xml</dc:format>
        <dc:type
           rdf:resource="http://purl.org/dc/dcmitype/StillImage" />
        <dc:title></dc:title>
      </cc:Work>
    </rdf:RDF>
  </metadata>
  <defs
     id="defs14" />
  <sodipodi:namedview
     pagecolor="#ffffff"
     bordercolor="#666666"
     borderopacity="1"
     objecttolerance="10"
     gridtolerance="10"
     guidetolerance="10"
     inkscape:pageopacity="0"
     inkscape:pageshadow="2"
     inkscape:window-width="1920"
     inkscape:window-height="1001"
     id="namedview12"
     showgrid="false"
     inkscape:zoom="2.3488372"
     inkscape:cx="295.92686"
     inkscape:cy="154.20213"
     inkscape:window-x="-9"
     inkscape:window-y="-9"
     inkscape:window-maximized="1"
     inkscape:current-layer="svg10"
     showguides="true"
     inkscape:guide-bbox="true">
    <sodipodi:guide
       position="135.59901,52.579208"
       orientation="1,0"
       id="guide47"
       inkscape:locked="false" />
    <sodipodi:guide
       position="270.13366,41.509901"
       orientation="1,0"
       id="guide49"
       inkscape:locked="false" />
    <sodipodi:guide
       position="66.20297,66.841584"
       orientation="1,0"
       id="guide51"
       inkscape:locked="false" />
    <sodipodi:guide
       position="3.8316832,135.38614"
       orientation="0,1"
       id="guide836"
       inkscape:locked="false" />
  </sodipodi:namedview>
  <path
     style="fill:#f53b48"
     d="m 227.68778,161.37152 c -1.73938,0.16579 -2.05982,3.59176 -2.42286,4.53781 -0.31658,0.825 -0.83852,-0.36263 -3.04003,-0.41584 -3.20889,-0.0776 -3.18089,2.09632 -3.89556,8.86923 -0.88145,8.35346 -1.17335,6.19918 -2.1827,6.78785 -2.37248,1.38366 -2.31598,-1.75431 -2.32888,-3.07788 -0.0396,-4.05518 -3.00486,-10.26891 -6.42487,-12.35403 -2.87575,-1.7533 -3.97152,-1.48411 -15.45908,-1.48736 -12.19344,-0.003 -13.5104,-0.48794 -14.49804,1.35748 -0.5887,1.1 0.34735,3.15339 0.7792,3.19765 0.96403,0.68288 -2.83637,0.3939 -5.31137,1.03713 -3.58354,0.93134 -4.14515,0.64522 -4.94824,2.41124 -1.03893,2.28466 4.66614,3.36457 0.27228,3.82031 -2.52176,0.26157 -3.54891,3.4744 -1.75619,5.26712 0.77506,0.77505 4.27666,0.10073 2.97401,2.17251 -1.2249,1.94812 -0.73023,4.51205 6.4767,4.61702 14.48243,0.21093 7.46449,0.59745 7.72558,2.71287 2.41527,2.96588 -0.70223,2.76525 -3.96582,2.89155 -4.58358,0.17738 -8.63326,2.14226 -11.5362,6.03131 -1.8104,2.42538 -1.83127,4.39276 -2.12014,14.7334 -0.40842,14.61995 -0.61273,16.09675 2.23252,16.8418 2.06654,0.54114 3.16292,-5.11612 2.94334,3.29208 -0.0943,3.61126 2.15307,4.8313 4.2108,5.12202 1.32673,0.18745 2.08734,-3.0696 2.43665,0.79208 0.23601,2.60909 3.79652,2.12156 5.26764,0.12303 0.21015,-3.27302 0.58053,-1.98778 2.93359,-1.18069 2.76399,0.94802 3.332,-3.27091 3.57625,-10.46773 0.3193,-9.40827 0.84361,-5.04681 2.61757,-5.63871 3.05088,-1.01795 2.25364,-0.77654 1.78758,3.1547 0.0396,4.05519 4.49496,10.69271 7.91497,12.77783 2.87574,1.7533 3.54578,1.27314 15.03334,1.27644 12.19343,0.003 13.29751,0.3815 14.28515,-1.46392 0.5887,-1.1 0.23316,-2.87856 -0.19869,-2.92282 -0.43185,-0.0443 1.95482,-0.23045 4.42982,-0.87369 3.58354,-0.93134 4.07926,-1.50859 5.02801,-3.3543 0.0369,-1.6654 -2.1484,-2.14407 -1.37335,-2.91913 0.77505,-0.77505 3.64451,-1.75655 3.70562,-3.25482 0.0565,-1.38591 -0.12473,-1.61359 -0.99621,-2.27838 -1.90397,-1.4524 -3.7075,0.1782 -2.16394,-4.00846 -0.26454,-1.52001 0.17674,-2.65183 -7.02408,-2.96654 -8.77022,-0.38331 -9.20463,-0.55069 -8.03308,-2.6129 -1.87713,-1.90884 1.00974,-2.12018 4.27332,-2.24648 4.58358,-0.17738 9.00004,-2.78088 11.90299,-6.66992 1.81039,-2.42539 1.67735,-4.76529 1.96622,-15.10593 0.40842,-14.61995 -1.42641,-17.27649 -4.03657,-16.12219 -2.25673,0.998 -1.1895,0.16228 -1.99273,-3.58399 -0.26231,-3.6254 -0.38339,-3.77547 -1.86726,-5.23041 -1.11386,-1.09215 -3.76904,0.69802 -3.76904,0.69802 -0.5537,-0.92622 -0.10743,-4.60289 -3.42822,-4.28636 z m 0.88867,2.10352 c 1.09347,0.14305 1.64644,2.31372 1.64644,11.48631 0,7.04888 -0.0348,11.36134 0.57426,11.36134 0.6,0 0.36139,-4.10643 0.36139,-10.10643 0,-9.33334 0.77194,-9.89357 2.63861,-9.89357 1.87879,0 2,1.19885 2.53218,11 0.36145,6.65686 -0.13824,11 0.46782,11 0.5641,0 0.57426,-3.25907 0.57426,-6.92574 0,-5.91414 0.61364,-6.07426 2.50387,-6.07426 2.01648,0 2.06786,0.39468 1.75,13.4375 -0.32462,13.31989 -0.35406,13.46371 -3.27149,16.50586 -1.61873,1.68794 -4.54373,3.51319 -6.5,4.05664 -1.95626,0.54345 -4.00664,0.97354 -4.55664,0.95508 -2.53185,-0.085 -7.34653,-2.98369 -9.80078,-5.90039 -2.51903,-2.9937 -2.69922,-3.84637 -2.69922,-12.70508 0,-8.50431 0.18285,-9.46166 1.75,-9.16406 1.30444,0.24771 1.87346,1.60199 2.23633,5.32227 0.32019,3.28274 0.0238,0.43627 0.36139,-8.11425 0.48012,-12.16227 1.28116,-12.89357 3.15228,-12.89357 1.84317,0 2.03558,0.82334 2.46875,10.5 l 0.47071,10.5 0.52929,-11.99023 c 0.45862,-10.37461 0.76688,-12.03285 2.28125,-12.32227 0.19814,-0.0379 0.37309,-0.0556 0.5293,-0.0352 z m -37.125,1.84765 c 11.22282,0 12.8534,0.22496 15.55469,2.14844 3.28966,2.34245 5.79101,7.27445 5.79101,11.41797 0,4.05418 -3.00989,9.46744 -6.41992,11.54687 -2.38022,1.45146 -5.03095,1.87992 -11.66406,1.88282 -9.00949,0.004 -10.11771,-0.30705 -9.24024,-2.59375 0.34863,-0.90853 2.08537,-1.40235 4.93165,-1.40235 2.41615,0 3.00891,-0.34356 3.00891,-0.89356 0,-0.61365 -3.47501,-0.25495 -11.19056,-0.25495 -11.43509,0 -12.54187,-1.00991 -12.23828,-2.60149 0.28258,-1.48142 1.86587,-1.83569 10.32226,-2.30664 l 9.99024,-0.55664 -10.5,-0.20898 c -11.06868,-0.2203 -14.1087,-0.53282 -13.10348,-3.15239 0.50608,-1.31881 3.02881,-2.06192 12.32223,-2.23433 l 11.28125,-0.21094 -9.79492,-0.32617 c -7.75557,-0.25928 -11.09205,-0.65415 -11.56728,-1.89258 -0.97266,-2.53472 2.79281,-3.31851 12.8622,-3.53516 7.16288,-0.15411 8.02927,-0.29512 3.52344,-0.57226 -5.58265,-0.34337 -8.05633,-1.58352 -6.89844,-3.45703 0.27117,-0.43876 6.13417,-0.79688 13.0293,-0.79688 z m 22.09555,16.91753 c 0.46074,0.0401 -0.30014,7.99299 0.0284,13.02581 0.50167,7.68487 1.51013,8.57124 3.73635,11.64357 l 5.91139,4.26458 -11.22088,0.10643 c -4.26886,0.0405 -7.68157,0.59838 -8.88291,1.20019 -1.20135,0.60181 -3.51868,1.43596 -4.69479,2.82868 l -3.25625,5.13893 0.4843,-10.94994 c -0.34654,-7.63102 -1.19389,-7.95309 -4.44525,-11.30764 l -5.25081,-4.61319 9.12975,0.10644 c 8.44519,0.0985 12.72839,-1.19754 14.86523,-4.94241 0.35518,-0.62245 3.81177,-5.02957 3.59546,-6.50145 z m -32.96274,12.54927 c 3.63972,0.0975 7.25072,1.81301 10.16211,5.1289 2.94403,3.35306 3.05078,3.80458 3.05078,13.01172 0,8.54425 -0.18242,9.50471 -1.75,9.20703 -1.30444,-0.2477 -1.87346,-1.60394 -2.23632,-5.32421 -0.32019,-3.28275 -0.66246,-0.54076 -1,8.00976 -0.48012,12.16227 -0.64256,13 -2.51368,13 -1.84318,0 -2.03754,-0.82334 -2.4707,-10.5 l -0.46875,-10.5 -0.53125,11.98828 c -0.45862,10.37461 -0.76493,12.03481 -2.2793,12.32422 -1.58513,0.30294 -2.38861,-0.75728 -2.38861,-11.24023 0,-7.04889 0.24767,-11.57227 -0.36139,-11.57227 -0.6,0 -0.68069,3.89357 -0.68069,9.89357 0,9.33333 -0.45264,10.10643 -2.31931,10.10643 -1.87879,0 -2.85149,-0.7731 -2.85149,-11.10643 0,-6.66667 0.45755,-10.89357 -0.14851,-10.89357 -0.5641,0 -1,2.83333 -1,6.5 0,5.91414 -0.18789,7.13862 -2.07813,7.13862 -2.01648,0 -2.06786,-1.03329 -1.75,-14.07612 0.32487,-13.32987 0.35054,-13.46165 3.2793,-16.51562 3.02736,-3.15679 6.69622,-4.67759 10.33594,-4.58008 z m 33.29688,17.53711 c 9.0095,-0.004 10.11772,0.30705 9.24023,2.59375 -0.34864,0.90852 -2.08536,1.40234 -4.93164,1.40234 -2.41616,0 -4.39258,0.45 -4.39258,1 0,0.61365 5.06959,0.14852 12.78514,0.14852 11.43551,0 12.33001,1.00985 12.02541,2.60148 -0.28489,1.48861 -1.82578,1.81972 -10.32227,2.21875 l -9.98828,0.46875 11.5,0.53125 c 10.65636,0.49196 11.5,0.67797 11.5,2.53125 0,1.85214 -0.85018,2.04095 -11.5,2.55078 l -11.5,0.54883 9.78125,0.20117 c 7.92302,0.16157 9.89887,0.50207 10.39649,1.79883 0.98731,2.57289 -1.57076,3.35676 -11.67774,3.57422 -7.16288,0.15411 -8.02925,0.29318 -3.52343,0.57031 5.58265,0.34337 8.05632,1.58352 6.89843,3.45703 -0.27117,0.43876 -6.20355,0.78305 -13.18359,0.76563 -11.38124,-0.0284 -12.98755,-0.25125 -15.56445,-2.17188 -5.33842,-3.97885 -6.96453,-11.17388 -3.95703,-17.51172 2.66368,-5.61327 6.41114,-7.27489 16.41406,-7.27929 z"
     id="path20"
     inkscape:connector-curvature="0"
     sodipodi:nodetypes="scssscssscsssssscssssssscssscccccscssscscscsscscsssssssssssccccsccssccccsscssccssssccsscccsssssscccsccccccsccscsccsscccssssssssssssccsssccccsccccsscssscc" />
  <g
     transform="matrix(3.7795276,0,0,3.7795276,-68.485372,54.353131)"
     id="layer1"
     inkscape:label="Layer 1">
    <path
       sodipodi:nodetypes="ccssscsssccssccssssssssssccccsccscccsccsscsscsssccsccccccssc"
       inkscape:connector-curvature="0"
       id="path1906"
       d="m 33.582868,48.517984 c -0.302873,-0.334672 -0.438679,-0.966892 -0.440466,-2.050521 -0.0026,-1.593478 -0.438808,-2.755005 -1.979311,-5.270833 -1.359037,-2.219471 -1.09754,-4.67834 0.705566,-6.634479 2.076607,-2.252853 5.402034,-2.515107 7.715149,-0.608443 1.540419,1.269743 2.102279,2.683656 1.981677,4.818014 0,0 -0.240759,1.927165 -1.055659,3.131129 -1.436557,2.122423 -1.544004,2.421901 -1.544004,4.303468 0,2.420239 -0.402959,2.795519 -3.001701,2.795519 -1.546685,0 -2.03275,-0.09877 -2.381251,-0.483854 z m 4.08484,-0.587754 c 0.915894,-0.490172 0.26117,-0.780475 -1.760212,-0.780475 -1.958028,0 -2.257663,0.13443 -1.65126,0.740833 0.391306,0.391306 2.704164,0.418181 3.411472,0.03964 z m 0.504362,-1.9711 c 0,-0.319705 -0.411574,-0.396875 -2.116667,-0.396875 -1.705093,0 -2.116667,0.07717 -2.116667,0.396875 0,0.319704 0.411574,0.396875 2.116667,0.396875 1.705093,0 2.116667,-0.07717 2.116667,-0.396875 z m 0.591504,-2.795165 c 0.475037,-0.882497 1.131595,-2.09835 1.459017,-2.701896 1.656773,-3.053975 -0.515467,-6.778634 -3.994055,-6.848457 -3.023495,-0.06069 -4.935633,1.834132 -4.935633,4.890933 0,1.232513 0.146193,1.645108 1.058409,2.987103 0.582125,0.856386 1.186671,1.944018 1.343436,2.416961 l 0.285026,0.859896 h 1.960048 1.960047 z M 26.922401,38.675197 c -0.102927,-0.16654 -0.06837,-0.421568 0.07679,-0.56673 0.385267,-0.385267 1.515587,-0.154042 1.515587,0.310038 0,0.479978 -1.32261,0.693184 -1.592377,0.256692 z m 16.668751,0 c -0.102928,-0.16654 -0.06837,-0.421568 0.07679,-0.56673 0.385267,-0.385267 1.515587,-0.154042 1.515587,0.310038 0,0.479978 -1.32261,0.693184 -1.592377,0.256692 z m -15.206939,-4.21491 c -0.568617,-0.436863 -0.598879,-0.530218 -0.219113,-0.675948 0.560302,-0.215008 1.540303,0.298448 1.540303,0.807016 0,0.52953 -0.529772,0.476974 -1.32119,-0.131068 z m 14.02119,0.131068 c 0,-0.508568 0.980001,-1.022024 1.540303,-0.807016 0.379766,0.14573 0.349504,0.239085 -0.219112,0.675948 -0.791419,0.608042 -1.321191,0.660598 -1.321191,0.131068 z M 31.546421,31.518663 c -0.161846,-0.302412 -0.218179,-0.74812 -0.125184,-0.990461 0.14573,-0.379766 0.239085,-0.349504 0.675949,0.219112 0.278777,0.362853 0.509514,0.80856 0.51275,0.990462 0.0095,0.534185 -0.743376,0.379072 -1.063515,-0.219113 z m 7.954449,0.219113 c 0.0032,-0.181902 0.233973,-0.627609 0.51275,-0.990462 0.436864,-0.568616 0.530219,-0.598878 0.675949,-0.219112 0.09299,0.242341 0.03666,0.688049 -0.125184,0.990461 -0.320139,0.598185 -1.073018,0.753298 -1.063515,0.219113 z m -3.86458,-1.087022 c -0.240408,-0.626495 -0.01235,-1.360374 0.422736,-1.360374 0.258061,0 0.393252,0.265293 0.393252,0.771701 0,0.836336 -0.564638,1.243679 -0.815988,0.588673 z"
       style="fill:#f53643;stroke-width:0.26458335" />
  </g>
  <path
     style="fill:#f53644"
     d="m 312.67824,241.06481 c -4.8727,-2.23755 -7.29685,-4.84279 -8.93207,-9.59935 -0.84348,-2.45352 -2.33048,-4.15906 -4.63499,-5.3162 -8.11907,-4.07672 -10.27528,-14.10563 -4.36012,-20.27972 l 2.80136,-2.924 -2.80136,-2.92399 c -5.91516,-6.1741 -3.75895,-16.203 4.36012,-20.27973 2.30451,-1.15713 3.79151,-2.86268 4.63499,-5.31619 1.63522,-4.75656 4.05937,-7.3618 8.93207,-9.59936 9.10643,-4.18169 19.20395,-0.32264 23.12316,8.83716 1.98315,4.6349 1.98315,53.92932 0,58.56423 -3.91921,9.1598 -14.01673,13.01884 -23.12316,8.83715 z m 15.36424,-3.83039 c 4.48579,-3.28644 6.13248,-7.8604 6.13421,-17.03888 0.002,-8.82868 -0.26771,-9.19636 -4.95981,-6.76998 -3.83617,1.98376 -6.84688,5.98088 -7.62365,10.12143 -0.3885,2.0709 -1.22355,3.39855 -2.13757,3.39855 -1.95347,0 -0.92393,-6.17443 1.75713,-10.53809 1.92667,-3.13579 8.50786,-7.46191 11.3516,-7.46191 1.30582,0 1.61385,-1.14521 1.61385,-6 0,-4.85478 -0.30803,-6 -1.61385,-6 -2.84374,0 -9.42493,-4.32611 -11.3516,-7.46191 -2.68106,-4.36365 -3.7106,-10.53809 -1.75713,-10.53809 0.91402,0 1.74907,1.32765 2.13757,3.39856 0.77677,4.14054 3.78748,8.13766 7.62365,10.12142 4.6921,2.42638 4.96147,2.0587 4.95981,-6.76998 -0.002,-12.60448 -3.97221,-18.4744 -13.13421,-19.42067 -7.52287,-0.77697 -13.61695,4.35365 -15.347,12.92067 -0.42234,2.09139 -1.13617,2.75 -2.98053,2.75 -1.33385,0 -3.68778,1.08604 -5.23095,2.41342 -2.29796,1.97663 -2.80576,3.22451 -2.80576,6.89501 0,5.22182 2.24338,8.30877 6.91866,9.52025 3.95979,1.02609 3.95979,3.31656 0,4.34264 -4.67528,1.21149 -6.91866,4.29844 -6.91866,9.52026 0,3.67049 0.5078,4.91838 2.80576,6.89501 1.54317,1.32738 3.8971,2.41341 5.23095,2.41341 1.84436,0 2.55819,0.65862 2.98053,2.75 0.97634,4.83473 4.10903,9.57878 7.59559,11.50252 4.15508,2.2926 10.90905,1.8514 14.75141,-0.96364 z m -24.86424,-22.66388 c 0,-0.98412 0.8282,-1.625 2.1,-1.625 3.36032,0 8.9,-6.22436 8.9,-10 0,-3.77564 -5.53968,-10 -8.9,-10 -1.2718,0 -2.1,-0.64087 -2.1,-1.625 0,-1.29455 0.65027,-1.49494 3.19773,-0.98545 4.67281,0.93456 7.77874,3.30988 9.39922,7.18823 1.39105,3.32926 1.58572,3.42264 7.16647,3.43754 3.15512,0.008 6.41158,0.45842 7.23658,1 2.49689,1.6391 -0.70258,2.95193 -7.23658,2.96937 -5.58075,0.0149 -5.77542,0.10827 -7.16647,3.43753 -1.62048,3.87835 -4.72641,6.25368 -9.39922,7.18824 -2.54746,0.50949 -3.19773,0.30909 -3.19773,-0.98546 z m 47.5,26.95765 c -3.72671,-1.66345 -8.03106,-6.17824 -9.43638,-9.89775 -1.6827,-4.45362 -1.41537,-53.92704 0.31322,-57.96702 3.91921,-9.15979 14.01673,-13.01884 23.12316,-8.83715 4.8727,2.23756 7.29684,4.8428 8.93207,9.59936 0.84348,2.45351 2.33048,4.15906 4.63499,5.31619 8.11907,4.07673 10.27528,14.10564 4.36012,20.27973 l -2.80136,2.92399 2.80136,2.92399 c 5.91516,6.1741 3.75895,16.20301 -4.36012,20.27973 -2.30451,1.15714 -3.79151,2.86268 -4.63499,5.3162 -1.63523,4.75656 -4.05937,7.3618 -8.93207,9.59935 -4.70512,2.1606 -9.81845,2.32984 -14,0.46338 z m 13.40277,-3.39084 c 3.46531,-1.85846 6.60035,-6.59073 7.57999,-11.44181 0.42234,-2.09138 1.13617,-2.75 2.98053,-2.75 1.33385,0 3.68778,-1.08603 5.23095,-2.41341 2.29796,-1.97663 2.80576,-3.22452 2.80576,-6.89502 0,-5.22182 -2.24338,-8.30876 -6.91867,-9.52025 -3.95978,-1.02608 -3.95978,-3.31655 0,-4.34264 4.67529,-1.21148 6.91867,-4.29843 6.91867,-9.52025 0,-3.6705 -0.5078,-4.91838 -2.80576,-6.89501 -1.54317,-1.32738 -3.8971,-2.41342 -5.23095,-2.41342 -1.84436,0 -2.55819,-0.65861 -2.98053,-2.75 -1.73005,-8.56702 -7.82413,-13.69764 -15.347,-12.92067 -9.162,0.94627 -13.13183,6.81619 -13.13421,19.42067 -0.002,8.82868 0.26771,9.19636 4.95981,6.76998 3.83617,-1.98376 6.84688,-5.98088 7.62365,-10.12142 0.3885,-2.07091 1.22355,-3.39856 2.13757,-3.39856 1.95347,0 0.92393,6.17444 -1.75714,10.53809 -1.92666,3.1358 -8.50785,7.46191 -11.3516,7.46191 -1.30581,0 -1.61384,1.14522 -1.61384,6 0,4.85479 0.30803,6 1.61384,6 2.84375,0 9.42494,4.32612 11.3516,7.46191 2.68107,4.36366 3.71061,10.53809 1.75714,10.53809 -0.91402,0 -1.74907,-1.32765 -2.13757,-3.39855 -0.77677,-4.14055 -3.78748,-8.13767 -7.62365,-10.12143 -4.98388,-2.57726 -5.18267,-2.24861 -4.80789,7.94905 0.39057,10.62741 1.84861,13.72472 7.91761,16.81938 4.3915,2.23928 8.58523,2.22076 12.83169,-0.0566 z m 3.09723,-23.94336 c -2.11941,-1.05877 -4.22278,-3.22765 -5.33236,-5.49845 -1.7948,-3.67314 -1.94851,-3.75031 -7.5,-3.76531 -3.1172,-0.008 -6.34264,-0.45842 -7.16764,-1 -2.49689,-1.6391 0.70258,-2.95193 7.23658,-2.96937 5.58075,-0.0149 5.77542,-0.10828 7.16647,-3.43754 1.62048,-3.87835 4.72641,-6.25367 9.39922,-7.18823 2.54746,-0.50949 3.19773,-0.3091 3.19773,0.98545 0,0.98413 -0.82821,1.625 -2.1,1.625 -3.36032,0 -8.9,6.22436 -8.9,10 0,3.77564 5.53968,10 8.9,10 1.2,0 2.1,0.64286 2.1,1.5 0,1.99152 -2.70442,1.89433 -7,-0.25155 z"
     id="path43"
     inkscape:connector-curvature="0" />
  <path
     style="fill:#f53744"
     d="m 85.799039,99.944521 c -1.329917,-1.04612 -3.492525,-4.19612 -4.805796,-7 l -2.387764,-5.09798 H 72.404225 66.20297 l -0.677806,4.23877 c -0.372794,2.33132 -1.633749,5.25632 -2.802122,6.5 -2.001014,2.129979 -2.901599,2.261229 -15.515743,2.261229 -7.365286,0 -14.200127,-0.4328 -15.188536,-0.961779 -2.590525,-1.38641 -4.428331,-6.50361 -3.679826,-10.24614 0.971023,-4.85511 4.262957,-7.79208 8.733839,-7.79208 h 3.776794 l -1.929146,-4.25 c -1.06103,-2.3375 -1.929146,-5.375 -1.929146,-6.75 0,-4.18493 3.526366,-10.57046 7.519387,-13.61609 l 4.533619,-2.20656 18.075228,-0.67735 h 18.827842 v -4.29966 c 0,-13.68515 16.125876,-21.676955 27.950356,-13.85189 4.30231,2.84714 7.35781,9.54378 7.35781,14.44618 0,3.70238 -1.60459,9.75393 -4.09631,12.56 -4.70653,5.30031 -15.04564,7.09025 -21.371335,3.69988 l -3.62986,-1.94548 4.55465,13.74001 c 5.133775,15.48708 5.128715,18.02543 -0.0422,21.17824 -4.06947,2.481259 -7.776301,2.505359 -10.871478,0.0707 z m 10.148316,-3.09798 c 1.099998,-1.1 1.999998,-2.56206 1.999998,-3.24903 0,-0.68696 -2.292158,-8.22446 -5.093698,-16.75 -6.886533,-20.9569 -5.628871,-20.00097 -26.314181,-20.00097 -15.277718,0 -16.508745,0.14189 -19.694237,2.26993 -7.439498,4.96991 -8.619687,13.41482 -2.99077,21.40063 l 3.051672,4.32944 H 40.48345 c -5.503406,0 -6.6455,0.31811 -7.979392,2.22251 -1.798862,2.56823 -2.005408,6.07056 -0.52152,8.84323 0.94405,1.76398 2.209799,1.93426 14.377555,1.93426 15.300041,0 15.607066,-0.15072 16.364471,-8.03318 l 0.477249,-4.96682 h 8.742058 8.742058 l 2.564508,5.91326 c 3.528398,8.1358 8.340838,10.442819 12.696918,6.08674 z m 14.618555,-32.62329 c 10.6759,-5.06604 10.92237,-20.99913 0.40782,-26.36325 -7.32198,-3.73539 -15.322395,-1.72509 -19.844943,4.98654 -3.213509,4.76896 -2.768697,13.65818 0.881388,17.6138 4.85829,5.26497 12.237075,6.76131 18.555735,3.76291 z"
     id="path865"
     inkscape:connector-curvature="0"
     sodipodi:nodetypes="cscccsssssscssscccssscscscccsscssscssssscccsssssss" />
  <path
     style="fill:#f53341"
     d="m 294.94543,85.503174 c -2.20711,-2.2071 -0.21398,-5.90074 7.81544,-14.48351 4.67961,-5.00211 8.77986,-10.17639 9.11166,-11.49841 1.3453,-5.36009 -4.98071,-7.53176 -6.92615,-2.37769 -1.04068,2.75708 -1.51949,3 -5.91314,3 -4.45764,0 -4.78076,-0.17232 -4.78076,-2.54966 0,-7.01843 5.7075,-11.84008 14.09367,-11.90622 9.50953,-0.075 13.90633,3.96295 13.90633,12.77136 0,4.83591 -1.30244,7.02749 -8.87546,14.93452 l -4.54936,4.75 h 3.09578 c 2.28722,0 3.23681,-0.53932 3.63577,-2.06493 0.44719,-1.71008 1.1976,-2.01082 4.36663,-1.75 l 3.82664,0.31493 v 5.5 5.5 l -14.05705,0.27628 c -7.73138,0.15195 -14.36888,-0.0356 -14.75,-0.41667 z m 26.30705,-4.85961 c 0,-3.66507 -2.47694,-5.02664 -3.63837,-2 -0.70745,1.84358 -12.36163,2.19942 -12.36163,0.37743 0,-0.61741 2.75393,-4.06652 6.11984,-7.66469 9.58871,-10.25036 10.79664,-15.5809 4.69429,-20.71569 -3.25528,-2.73913 -9.24188,-3.36835 -13.12987,-1.38001 -4.95605,2.53455 -7.62809,8.88296 -3.73883,8.88296 1.13208,0 2.49183,-1.14001 3.25233,-2.72673 2.77616,-5.79226 10.97028,-5.33764 12.29242,0.682 0.91196,4.15213 -2.42305,9.65631 -10.91588,18.01584 -9.59098,9.44044 -9.27262,10.02889 5.4257,10.02889 h 12 z m 31.69295,4.85961 c -2.20711,-2.2071 -0.21399,-5.90074 7.81544,-14.48351 4.67961,-5.00211 8.77986,-10.17639 9.11166,-11.49841 1.3453,-5.36009 -4.98071,-7.53176 -6.92615,-2.37769 -1.04068,2.75708 -1.51949,3 -5.91314,3 -4.45764,0 -4.78076,-0.17232 -4.78076,-2.54966 0,-7.01843 5.7075,-11.84008 14.09367,-11.90622 9.50953,-0.075 13.90633,3.96295 13.90633,12.77136 0,4.83591 -1.30244,7.02749 -8.87546,14.93452 l -4.54936,4.75 h 3.09578 c 2.28722,0 3.23681,-0.53932 3.63577,-2.06493 0.44719,-1.71008 1.1976,-2.01082 4.36663,-1.75 l 3.82664,0.31493 v 5.5 5.5 l -14.05705,0.27628 c -7.73138,0.15195 -14.36888,-0.0356 -14.75,-0.41667 z m 26.30705,-4.85961 c 0,-3.66507 -2.47694,-5.02664 -3.63837,-2 -0.70745,1.84358 -12.36163,2.19942 -12.36163,0.37743 0,-0.61741 2.75393,-4.06652 6.11984,-7.66469 9.58871,-10.25036 10.79664,-15.5809 4.69429,-20.71569 -3.25528,-2.73913 -9.24188,-3.36835 -13.12987,-1.38001 -4.95605,2.53455 -7.62809,8.88296 -3.73883,8.88296 1.13208,0 2.49183,-1.14001 3.25233,-2.72673 2.77616,-5.79226 10.97028,-5.33764 12.29242,0.682 0.91196,4.15213 -2.42305,9.65631 -10.91588,18.01584 -9.59098,9.44044 -9.27262,10.02889 5.4257,10.02889 h 12 z m -46.28723,0.87944 c -0.39202,-0.39203 -0.71277,-2.88777 -0.71277,-5.54611 v -4.83333 h -4.5 -4.5 v -4.5 -4.5 h 4.44521 4.44521 l 0.30479,-4.75 0.30479,-4.75 h 5 5 l 0.30479,4.75 0.30479,4.75 h 4.44521 4.44521 v 4.5 4.5 h -4.44774 -4.44774 l -0.30226,5.25 -0.30226,5.25 -4.53723,0.2961 c -2.49548,0.16286 -4.85798,-0.0246 -5.25,-0.41666 z m 7.28723,-6.87944 v -5.5 h 4.5 c 4.13333,0 4.5,-0.2037 4.5,-2.5 0,-2.2963 -0.36667,-2.5 -4.5,-2.5 h -4.5 v -5 c 0,-4.66667 -0.16667,-5 -2.5,-5 -2.33333,0 -2.5,0.33333 -2.5,5 v 5 h -4.5 c -4.13333,0 -4.5,0.2037 -4.5,2.5 0,2.2963 0.36667,2.5 4.5,2.5 h 4.5 v 5.5 c 0,5.2 0.13636,5.5 2.5,5.5 2.36364,0 2.5,-0.3 2.5,-5.5 z"
     id="path878"
     inkscape:connector-curvature="0" />
  <path
     style="fill:#f53744"
     d="m 196.07649,108.42955 c -3.21682,-0.38725 -8.99733,-1.62475 -12.84558,-2.75 -3.84825,-1.12524 -8.21991,-2.04589 -9.71481,-2.04589 -1.66375,0 -3.11953,-0.75025 -3.75319,-1.93426 -1.29595,-2.421517 -1.3425,-27.031897 -0.055,-29.065737 1.4386,-2.27248 11.003,-1.91289 14.64076,0.55045 2.21179,1.49772 4.64102,1.95846 10.4817,1.98801 5.4402,0.0275 8.34566,0.52528 10.21482,1.75 3.48233,2.28171 3.68251,2.20809 3.68251,-1.3542 0,-3.45191 1.21456,-6.13286 4.64857,-10.26098 1.29329,-1.5547 2.35143,-3.15842 2.35143,-3.56381 0,-0.4054 -2.6828,-0.54303 -5.96177,-0.30585 -5.08487,0.3678 -6.61648,0.0476 -10.41297,-2.17735 -6.21649,-3.6431 -9.09193,-8.64303 -9.09193,-15.80942 0,-4.70693 0.5163,-6.42289 2.98334,-9.915362 6.83363,-9.674059 20.47011,-10.996242 28.1856,-2.732853 2.72215,2.915453 5.29773,8.912045 5.29773,12.334435 0,1.41201 0.66966,3.58932 1.48813,4.83847 0.81847,1.24914 1.92881,6.29581 2.46742,11.21481 0.53861,4.91901 1.68363,11.41865 2.54449,14.44365 3.10905,10.925 1.01188,30.749237 -3.50004,33.085387 -2.36947,1.22685 -27.18918,2.48844 -33.65124,1.7105 z m 22.00218,-3.44825 10.66207,-0.65237 1.4935,-5.029137 c 2.05642,-6.92472 1.86955,-16.97079 -0.4995,-26.85278 -1.09615,-4.57234 -1.99615,-10.45085 -2,-13.06335 -0.004,-2.6125 -0.36568,-4.75 -0.80406,-4.75 -1.01879,0 -7.25708,6.6217 -9.77454,10.37529 -1.06063,1.58142 -2.71354,4.05642 -3.67315,5.5 -1.10228,1.65823 -1.74667,4.55789 -1.75,7.87471 -0.003,2.8875 -0.43528,5.25 -0.96085,5.25 -0.52558,0 -2.55658,-1.08646 -4.51335,-2.41436 -4.41719,-2.99759 -9.83932,-3.97582 -15.2717,-2.75525 -3.54835,0.79726 -4.4139,0.65633 -5.87331,-0.9563 -2.03542,-2.24912 -8.58633,-4.39495 -10.81098,-3.54127 -1.32083,0.50685 -1.57277,2.66756 -1.5608,13.3858 l 0.0143,12.781377 10.23573,2.62956 c 10.96554,2.81705 18.01432,3.26266 35.08667,2.21808 z m -2.33534,-48.171627 c 3.8191,-1.9992 7.99914,-8.89621 7.96244,-13.1379 -0.0373,-4.30961 -3.65069,-10.868106 -7.1699,-13.013711 -4.43765,-2.705565 -12.18322,-2.702763 -16.62617,0.006 -4.46187,2.720311 -7.5707,9.709271 -6.67558,15.007391 1.74391,10.32216 13.22001,16.00086 22.50921,11.13821 z m -13.42671,-8.25273 c -2.97789,-3.53903 -3.15463,-4.92858 -1.12587,-8.85176 1.63985,-3.17113 3.33473,-4.07152 7.66422,-4.07152 3.49681,0 7.87276,3.90212 7.87276,7.02029 0,8.19604 -9.28232,11.99821 -14.41111,5.90299 z m 9.93852,-1.95356 c 1.45339,-1.60598 1.6382,-2.59663 0.88432,-4.74028 -1.01587,-2.88862 -3.1435,-3.76456 -6.87133,-2.82893 -2.93099,0.73563 -3.91649,4.37656 -1.98324,7.32707 1.85343,2.82869 5.52841,2.94034 7.97025,0.24214 z"
     id="path891"
     inkscape:connector-curvature="0" />
</svg>
