<?xml version="1.0" encoding="UTF-8" standalone="no"?>
<!-- Created with Inkscape (http://www.inkscape.org/) -->

<svg
   xmlns:dc="http://purl.org/dc/elements/1.1/"
   xmlns:cc="http://creativecommons.org/ns#"
   xmlns:rdf="http://www.w3.org/1999/02/22-rdf-syntax-ns#"
   xmlns:svg="http://www.w3.org/2000/svg"
   xmlns="http://www.w3.org/2000/svg"
   xmlns:sodipodi="http://sodipodi.sourceforge.net/DTD/sodipodi-0.dtd"
   xmlns:inkscape="http://www.inkscape.org/namespaces/inkscape"
   width="700"
   height="120"
   viewBox="0 0 185.20834 31.749998"
   version="1.1"
   id="svg8"
   inkscape:version="0.92.0 r15299"
   sodipodi:docname="sprite-deleviry.svg">
  <defs
     id="defs2" />
  <sodipodi:namedview
     id="base"
     pagecolor="#ffffff"
     bordercolor="#666666"
     borderopacity="1.0"
     inkscape:pageopacity="0.0"
     inkscape:pageshadow="2"
     inkscape:zoom="1.4"
     inkscape:cx="164.50966"
     inkscape:cy="8.0342566"
     inkscape:document-units="mm"
     inkscape:current-layer="layer1"
     showgrid="false"
     fit-margin-top="0"
     fit-margin-left="0"
     fit-margin-right="0"
     fit-margin-bottom="0"
     units="px"
     inkscape:pagecheckerboard="true"
     inkscape:window-width="1920"
     inkscape:window-height="1001"
     inkscape:window-x="-9"
     inkscape:window-y="-9"
     inkscape:window-maximized="1" />
  <metadata
     id="metadata5">
    <rdf:RDF>
      <cc:Work
         rdf:about="">
        <dc:format>image/svg+xml</dc:format>
        <dc:type
           rdf:resource="http://purl.org/dc/dcmitype/StillImage" />
        <dc:title></dc:title>
      </cc:Work>
    </rdf:RDF>
  </metadata>
  <g
     inkscape:label="Layer 1"
     inkscape:groupmode="layer"
     id="layer1"
     transform="translate(-128.13378,-208.25127)">
    <path
       style="fill:#f53341;stroke-width:0.26458332"
       d="m 297.53629,209.8722 c -0.0763,-0.006 -0.15813,-0.006 -0.2465,0.001 -0.90891,0.0702 -2.50488,0.8269 -5.79344,2.48047 -3.84087,1.93128 -5.10301,2.67524 -4.55786,2.68614 0.83147,0.0166 11.54943,-2.82608 11.90263,-3.15691 0.12152,-0.11382 0.0302,-0.57616 -0.20309,-1.02733 -0.30598,-0.5917 -0.56755,-0.94168 -1.10174,-0.9834 z m -114.80384,0.15555 c -8.81415,0 -15.63801,8.63822 -13.48911,17.07596 1.29594,5.08849 5.05386,8.89129 10.18181,10.30325 1.74287,0.4799 5.69472,0.37807 7.25537,-0.18707 l 0.94317,-0.32844 -1.47233,-1.36884 c -1.00338,-1.04917 -1.77975,-0.57497 -3.98167,-0.67467 -2.06508,-0.0935 -2.66964,-0.2346 -4.17494,-0.97565 -2.24876,-1.10707 -4.11373,-2.97735 -5.22966,-5.24412 -0.83593,-1.6981 -0.88056,-1.93508 -0.88056,-4.70411 0,-2.73346 0.0531,-3.02834 0.84904,-4.70876 1.06393,-2.24612 2.93278,-4.10435 5.29839,-5.26893 1.68826,-0.83117 2.06988,-1.15939 4.84223,-1.15939 2.77532,0 2.86932,0.32725 4.56804,1.16353 3.67531,1.80934 5.99352,5.19718 6.21875,9.08782 0.0699,1.2079 -0.0174,2.75701 -0.20206,3.58221 l -0.32556,1.45417 0.87436,0.90175 c 0.48086,0.49612 0.98922,0.86381 1.12965,0.81701 0.48499,-0.16166 1.2627,-2.97168 1.40663,-5.08134 0.53274,-7.80846 -5.93442,-14.68438 -13.81155,-14.68438 z m 78.4288,0.0253 c -0.99601,-0.005 -2.00709,0.11827 -3.01326,0.38034 -4.83059,1.25821 -8.39972,5.23804 -9.17618,10.23245 -0.3987,2.56452 -0.20382,3.38481 0.80512,3.38481 h 0.75654 l 0.11266,-2.31511 c 0.0853,-1.75243 0.27601,-2.66878 0.78548,-3.77031 1.98549,-4.29291 6.84143,-6.92861 11.26339,-6.11384 8.66044,1.59575 11.98595,12.06229 5.76813,18.15393 -0.74345,0.72837 -1.85239,1.54973 -2.46445,1.82573 -0.98589,0.44457 -1.11311,0.60323 -1.11311,1.38803 0,0.48722 0.0729,0.88573 0.16174,0.88573 0.0888,0 0.88858,-0.38695 1.77767,-0.85989 4.91939,-2.61684 7.51373,-8.47082 6.12211,-13.81363 -1.46034,-5.60661 -6.4074,-9.35217 -11.78584,-9.37824 z m -128.07849,0.50385 -0.77359,0.77308 -0.7736,0.77359 v 12.07937 12.07937 l 0.7736,0.77307 0.77359,0.7736 h 9.24182 9.24233 l 0.70021,-0.64905 0.6997,-0.64855 -0.0114,-4.1801 -0.0109,-4.17959 -1.04645,1.19062 -1.04645,1.19063 -5.3e-4,2.44739 -0.001,2.4474 h -8.46667 -8.46666 v -11.24479 -11.24479 h 8.46666 8.46667 v 1.77353 1.77354 l 1.05833,-1.03353 c 0.90389,-0.88263 1.05834,-1.19617 1.05834,-2.14871 0,-2.75867 0.0496,-2.74608 -10.85515,-2.74608 z m 91.06576,0.83354 c -0.99098,0.002 -2.06391,0.008 -3.1719,0.0186 l -8.05842,0.0739 -1.68827,1.98437 c -2.00575,2.35686 -2.43603,3.24234 -2.43603,5.0183 0,1.56802 0.3357,1.69027 1.09761,0.39894 0.85015,-1.4409 2.14654,-1.87093 3.27525,-1.08572 0.83456,0.58059 2.11282,0.75069 3.28094,0.43615 1.34709,-0.36274 2.73093,0.19211 3.16828,1.27021 0.54771,1.35013 3.46135,12.88322 3.46335,13.71027 0.003,1.04125 -0.7235,1.9583 -1.88257,2.37763 v 5.3e-4 c -0.75129,0.27178 0.0875,0.32624 5.26997,0.34313 l 6.16396,0.0202 0.65888,-0.6594 0.65939,-0.65887 -0.076,-9.20461 -0.076,-9.2046 -1.834,-2.31407 c -1.00884,-1.27281 -2.08041,-2.3742 -2.38125,-2.4474 -0.22563,-0.055 -2.46033,-0.0838 -5.43326,-0.0775 z m -66.44762,0.75396 c -0.25708,0 -0.89644,0.44648 -1.4211,0.99219 l -0.95395,0.99218 2.06189,1.91461 c 1.13396,1.05304 2.13832,1.91623 2.23242,1.91823 0.35833,0.008 1.81333,-1.88987 1.81333,-2.36471 0,-0.60515 -3.07837,-3.4525 -3.73259,-3.4525 z m 63.78112,0 c 7.9624,0 8.74313,0.0754 8.74313,0.84646 0,0.11646 -1.42875,0.21187 -3.175,0.21187 -1.75174,0 -3.175,0.10884 -3.175,0.24288 0,1.01327 0.24472,1.08004 3.95635,1.08004 3.29883,0 3.67883,0.0489 4.11344,0.52916 0.47816,0.52834 0.46247,0.52917 -10.419,0.52917 -10.81624,0 -10.89644,-0.004 -10.61537,-0.52917 0.26057,-0.48687 0.55416,-0.52916 3.67264,-0.52916 2.94745,0 3.44636,-0.0629 3.82716,-0.48369 0.24083,-0.26612 0.4377,-0.56376 0.4377,-0.66146 0,-0.0977 -1.44701,-0.17777 -3.21583,-0.17777 -3.19924,0 -3.21369,-0.003 -2.7373,-0.52917 0.45905,-0.50727 0.81494,-0.52916 8.58708,-0.52916 z m 81.38986,0.0341 c -0.85747,0.0306 -2.47678,0.43081 -5.97173,1.40457 l -5.15937,1.43764 6.5536,0.0171 6.55361,0.0171 -0.17415,-0.7276 c -0.22167,-0.92731 -0.6277,-1.73169 -0.99994,-1.98024 -0.1795,-0.11986 -0.41226,-0.18238 -0.80202,-0.16847 z m -39.5981,1.28313 c -0.0557,3.4e-4 -0.1206,0.006 -0.19482,0.006 -0.39212,0 -0.67193,0.64088 -1.47174,3.37344 -0.54306,1.85539 -1.23296,3.71625 -1.53324,4.13515 -0.30029,0.41889 -0.54622,1.04793 -0.54622,1.39785 0,0.85983 0.79048,1.67555 1.62884,1.68155 0.37763,0.003 1.63876,0.52826 2.80293,1.16788 2.45747,1.35022 2.35676,1.32019 2.76107,0.83303 0.25495,-0.3072 -0.0762,-0.68159 -1.81281,-2.05052 -1.16873,-0.9213 -2.20383,-1.95702 -2.30064,-2.30167 -0.0967,-0.34457 0.0797,-2.24957 0.39171,-4.23333 0.59515,-3.78459 0.66462,-4.01147 0.27492,-4.00906 z m -105.56048,0.091 c 0.30789,-0.004 0.72405,0.34699 1.79627,1.33584 0.65392,0.60312 0.78565,0.86985 0.56276,1.13843 -0.40781,0.49139 -0.46989,0.46553 -1.90324,-0.79789 -1.13408,-0.99962 -1.2323,-1.16837 -0.8599,-1.47743 0.1467,-0.12175 0.26416,-0.19719 0.40411,-0.19895 z m -2.81895,1.25005 c -0.17678,-0.007 -0.4594,0.24597 -0.62839,0.56173 -0.27953,0.52233 -0.13121,0.73623 1.64435,2.37349 1.99535,1.83994 2.46794,2.03305 2.98121,1.21802 0.24875,-0.395 -0.005,-0.73901 -1.69188,-2.30219 -1.09116,-1.0109 -2.12851,-1.84405 -2.30529,-1.85105 z m -12.64316,1.02578 c -2.96987,0 -5.93942,0.11239 -6.16448,0.33745 -0.46787,0.46787 -0.38629,1.46861 0.14521,1.77818 0.62401,0.36347 11.31328,0.37405 11.98997,0.0119 0.57206,-0.30615 0.68037,-1.304 0.1943,-1.79007 -0.22505,-0.22506 -3.19513,-0.33745 -6.165,-0.33745 z m 35.82417,0.28474 c -0.23916,0 -0.9414,0.54933 -1.56062,1.22111 -1.09066,1.18323 -1.12115,1.26499 -0.98237,2.60966 0.35425,3.43237 4.57842,9.13567 9.53017,12.86692 2.26232,1.70471 3.68414,2.51365 5.34282,3.0396 0.58208,0.18458 1.34217,0.34347 1.68879,0.35347 1.44163,0.0405 3.74656,-2.15222 3.24269,-3.08457 -0.28791,-0.53272 -4.64668,-4.83536 -4.89841,-4.83536 -0.0901,0 -0.6185,0.41067 -1.17408,0.91261 l -1.00976,0.9126 -3.36311,-3.37033 -3.36258,-3.37034 0.79995,-0.76688 c 0.4402,-0.42174 0.80047,-1.01009 0.80047,-1.30741 0,-0.65272 -4.41726,-5.18108 -5.05396,-5.18108 z m 116.52467,0.26458 c -11.60577,0 -12.91897,0.0429 -13.35525,0.4377 -0.45205,0.40912 -0.48421,1.07822 -0.48421,10.18646 0,9.39411 0.0194,9.76753 0.52917,10.27741 0.51444,0.51446 0.88202,0.52916 13.21004,0.52916 h 12.68088 l 0.54829,-0.69711 c 0.46107,-0.5862 0.54829,-1.0704 0.54829,-3.04271 v -2.34559 l -4.69636,-10e-4 c -7.36562,-0.002 -7.73906,-0.23326 -7.73906,-4.78214 0,-2.64091 0.0491,-2.91688 0.6382,-3.60237 l 0.63769,-0.74207 5.51388,-0.13229 5.51335,-0.13229 0.077,-2.34508 c 0.0584,-1.78151 -0.0226,-2.49691 -0.33693,-2.97656 l -0.41341,-0.63149 z m -141.17432,0.0806 c -0.11138,0.0299 -2.23009,2.31564 -4.70876,5.07979 l -4.5067,5.02605 2.06292,1.91461 c 1.13484,1.05304 2.13897,1.91623 2.23087,1.91823 0.0919,0.002 2.21337,-2.28299 4.71444,-5.07773 l 4.54701,-5.08134 -2.0686,-1.9172 c -1.13775,-1.05436 -2.15981,-1.89231 -2.27118,-1.86241 z m 0.0455,1.78593 c 0.1088,-0.0127 0.22254,0.0794 0.41393,0.26769 0.38507,0.37894 0.37853,0.45343 -0.078,0.86661 -0.41619,0.37666 -0.54954,0.39227 -0.79789,0.093 -0.2239,-0.26982 -0.20413,-0.48532 0.0786,-0.86661 0.17092,-0.23054 0.27464,-0.34803 0.38344,-0.36071 z m 58.62226,0.28009 c -0.42556,-0.0266 -0.84906,0.31633 -1.03921,0.96222 -0.13922,0.47294 -0.39239,0.85989 -0.56276,0.85989 -0.50046,0 -0.92724,0.68881 -0.73587,1.18753 0.20442,0.53272 1.36219,0.45047 3.75119,-0.26666 1.19608,-0.35905 1.39322,-0.50825 1.32292,-1.002 -0.0601,-0.42254 -0.29593,-0.60473 -0.86765,-0.66973 -0.43177,-0.0491 -0.94905,-0.3237 -1.1498,-0.6103 -0.20726,-0.2959 -0.46348,-0.44501 -0.71882,-0.46095 z m -0.17777,0.53433 c 0.0172,-1.7e-4 0.035,0.003 0.0532,0.009 0.14552,0.0485 0.26459,0.20743 0.26459,0.35295 0,0.14552 -0.11907,0.30393 -0.26459,0.35243 -0.14552,0.0485 -0.26458,-0.10989 -0.26458,-0.35243 0,-0.21222 0.0911,-0.36053 0.21135,-0.36174 z m 5.38262,0.24547 c -0.40837,-0.0111 -0.86917,0.0367 -1.2795,0.14676 -0.41531,0.11136 -0.60356,0.39277 -0.66146,0.98857 -0.0732,0.75333 -0.22016,0.87892 -1.53634,1.31568 -0.80037,0.26559 -2.00257,0.54785 -2.67168,0.62735 -1.02867,0.12219 -1.30202,0.0532 -1.76991,-0.44907 -0.43206,-0.46375 -0.71648,-0.55368 -1.29708,-0.40876 -0.91896,0.22937 -1.67198,0.88175 -1.66398,1.44229 0.011,0.8159 3.39842,13.28924 3.7114,13.66635 0.17419,0.20989 0.5104,0.38131 0.74724,0.37931 0.80451,-0.005 10.38425,-2.60475 10.76627,-2.92179 0.20896,-0.17343 0.37982,-0.53515 0.37982,-0.80357 0,-0.99258 -3.43321,-13.56738 -3.76101,-13.77538 -0.19947,-0.12657 -0.5554,-0.19668 -0.96377,-0.20774 z m -65.41823,1.1746 c 0.80718,0 0.41633,0.63648 -2.18126,3.55431 -1.43358,1.61032 -2.7172,2.92798 -2.85254,2.92798 -0.13534,0 -0.31334,-0.17612 -0.39584,-0.39119 -0.18595,-0.48459 4.81173,-6.0911 5.42964,-6.0911 z m -10.0707,0.13229 c -3.85134,0 -5.49642,0.0911 -5.72265,0.3173 -0.46774,0.46774 -0.38635,1.4677 0.14521,1.78128 v 5.3e-4 c 0.27993,0.16509 2.17627,0.24856 4.79506,0.21136 l 4.33152,-0.0615 0.92811,-1.12447 0.92811,-1.12448 z m 119.33535,1.05834 c 0.62575,0 0.9471,0.73121 0.53795,1.22421 -0.39807,0.47969 -1.00904,0.46251 -1.19941,-0.0336 -0.2322,-0.60509 0.0931,-1.19062 0.66146,-1.19062 z m -43.40148,0.65887 c 0.0968,0.0968 2.57449,9.43072 2.73265,10.29446 0.0808,0.44132 -0.43784,0.64146 -4.27364,1.65106 -2.40111,0.632 -4.54422,1.15036 -4.7625,1.15136 -0.29418,0.002 -0.75612,-1.37835 -1.78542,-5.33353 -0.76378,-2.93483 -1.35912,-5.36002 -1.32292,-5.38882 0.18156,-0.14464 9.33293,-2.45343 9.41183,-2.37453 z m 85.69812,1.19321 c -6.8102,0 -6.5412,-0.13837 -6.5412,3.36775 0,1.99578 0.0947,2.64812 0.43822,3.02773 0.39809,0.43985 0.94974,0.48369 6.07043,0.48369 6.76897,0 6.45594,0.16938 6.45594,-3.4985 0,-3.48843 0.20468,-3.38067 -6.42339,-3.38067 z m -86.49497,0.56121 c -0.44373,-0.0195 -1.50601,0.21853 -3.73621,0.77979 -3.2491,0.81769 -3.80799,1.05549 -3.53157,1.50275 0.20403,0.33013 7.37917,-1.5634 7.51737,-1.98385 0.06,-0.1825 0.0166,-0.28701 -0.24959,-0.29869 z m -77.28779,1.29087 c -3.31497,0 -3.88969,0.15631 -3.88969,1.05834 0,0.23283 0.14319,0.5659 0.31781,0.74052 0.20552,0.20552 1.27097,0.31781 3.02101,0.31781 h 2.70371 l 0.55087,-0.89142 c 0.30291,-0.49012 0.55035,-0.96633 0.55035,-1.05833 0,-0.092 -1.46416,-0.16692 -3.25406,-0.16692 z m 110.5426,0 c -4.19511,0 -5.93669,0.0895 -6.16448,0.3173 -0.21387,0.21387 -0.31781,1.42287 -0.31781,3.70416 v 3.38688 h 9.92188 9.92187 v -0.6134 c 0,-0.423 -0.729,-1.32699 -2.34714,-2.91042 -2.18302,-2.1362 -2.42359,-2.29702 -3.43959,-2.29702 -0.87556,0 -1.09243,-0.0947 -1.09243,-0.47645 0,-1.03835 -0.4253,-1.11105 -6.4823,-1.11105 z m 50.50545,0.56069 c 0.75249,-0.0341 1.25741,0.49848 1.16789,1.26866 -0.0649,0.55848 -0.23756,0.69959 -0.94103,0.76739 -0.93882,0.0905 -1.22729,-0.26334 -1.07746,-1.32084 0.0576,-0.4068 0.2929,-0.64354 0.6966,-0.70074 0.0523,-0.007 0.10383,-0.0122 0.154,-0.0145 z m -83.24763,0.50126 c -0.44797,0.005 -7.11129,1.7943 -7.26933,1.95234 -0.069,0.0691 -0.0443,0.25746 0.0553,0.41858 0.0996,0.16094 0.37924,0.23525 0.62166,0.16485 0.24242,-0.0704 1.89932,-0.51062 3.68195,-0.97824 2.11481,-0.55476 3.24115,-0.97369 3.24115,-1.20561 0,-0.1955 -0.14883,-0.35392 -0.33073,-0.35192 z m -73.62393,1.06712 c -0.14758,-0.007 -0.60326,1.19526 -1.01286,2.67116 -0.57689,2.07866 -0.67023,2.72946 -0.41341,2.88819 0.31493,0.19463 1.41879,-0.16556 4.29586,-1.40198 l 1.27847,-0.54932 -1.93993,-1.79782 c -1.06686,-0.98867 -2.06056,-1.80323 -2.20813,-1.81023 z m 114.45916,0.78135 c 0.31073,0 1.20789,0.63453 2.05052,1.45004 v 5.3e-4 l 1.4981,1.45004 -2.05052,0.005 -2.05052,0.005 v -1.45521 c 0,-1.29925 0.0592,-1.45521 0.55242,-1.45521 z m -114.14652,0.52917 c 0.0887,0 0.67799,0.47625 1.30948,1.05833 0.63149,0.58209 1.10538,1.05833 1.05368,1.05833 -0.0517,0 -0.50891,0.17344 -1.01647,0.38551 -0.86892,0.36306 -0.95397,0.35146 -1.45056,-0.19844 -0.42973,-0.47587 -0.48387,-0.7432 -0.29249,-1.44384 0.12917,-0.47295 0.30766,-0.85989 0.39636,-0.85989 z m 72.66171,0.29559 c -0.73913,-0.0301 -5.79901,1.13509 -6.12365,1.43557 -0.0509,0.0472 -0.0143,0.21273 0.0816,0.36793 0.22453,0.36331 0.02,0.38913 3.13779,-0.3979 2.75777,-0.69616 3.26986,-0.93307 2.99155,-1.38338 -0.008,-0.0132 -0.0381,-0.0202 -0.0873,-0.0222 z m -78.04898,1.02732 c -2.39408,0 -2.99155,0.2114 -2.99155,1.05834 0,0.23283 0.14319,0.5659 0.31781,0.74052 0.19191,0.19191 1.12226,0.31781 2.35231,0.31781 1.92913,0 2.0437,-0.0334 2.19522,-0.63717 0.0879,-0.35029 0.23253,-0.82653 0.32143,-1.05833 0.14049,-0.36615 -0.14804,-0.42117 -2.19522,-0.42117 z m 78.07947,1.34928 c -0.0404,-0.005 -0.0897,0.003 -0.14779,0.0238 -0.19666,0.0702 -1.45893,0.4077 -2.805,0.74982 -1.52772,0.38831 -2.44739,0.75268 -2.44739,0.96945 0,0.48387 0.5864,0.43217 3.175,-0.27905 1.6504,-0.45345 2.27377,-0.74444 2.34197,-1.09296 0.0453,-0.23153 0.004,-0.35738 -0.11679,-0.37104 z m 26.87898,1.82572 v 1.26969 c 0,0.6985 0.14319,1.41287 0.31781,1.5875 v 5.3e-4 c 0.17463,0.17462 0.68064,0.31461 1.12448,0.31161 0.64712,-0.005 0.88529,-0.17426 1.20355,-0.85576 0.26315,-0.5635 0.72202,-0.97124 1.36167,-1.21026 0.84441,-0.31553 1.08071,-0.3053 1.89394,0.0806 0.54032,0.2564 1.06331,0.76513 1.25005,1.21595 l 0.32143,0.77515 2.54713,-0.0103 2.54765,-0.0103 0.53382,-0.84801 c 1.15293,-1.83251 3.34036,-1.8467 4.41316,-0.0284 0.55336,0.93788 1.40738,1.18369 2.01177,0.5793 0.17463,-0.17463 0.31729,-0.889 0.31729,-1.5875 v -1.26969 h -9.92187 z m 4.8581,1.5875 c -1.72662,0 -2.53938,2.07792 -1.29811,3.31918 0.35719,0.35719 0.95777,0.64957 1.3348,0.64957 0.88215,0 1.98438,-1.10222 1.98438,-1.98437 0,-0.90226 -1.10195,-1.98438 -2.02107,-1.98438 z m 10.37921,0.0357 c -1.08668,0.0264 -2.13892,0.94955 -1.90427,2.16473 0.0895,0.46329 0.41364,1.05067 0.72037,1.30534 0.74029,0.61459 1.59542,0.5849 2.44739,-0.0853 0.88173,-0.69357 0.93599,-1.94161 0.12196,-2.8081 -0.39029,-0.41545 -0.8915,-0.58869 -1.38545,-0.57671 z m -0.0191,1.02268 c 0.77494,0 1.2417,0.72493 0.88987,1.38234 -0.53088,0.99194 -2.03665,0.24386 -1.69241,-0.84077 0.10994,-0.34638 0.3995,-0.54157 0.80254,-0.54157 z m -10.3234,0.13229 c 0.87449,0 1.20208,0.67146 0.65112,1.33532 -0.41001,0.49429 -1.28621,0.49602 -1.47536,0.003 -0.30999,-0.80783 0.0166,-1.33842 0.82424,-1.33842 z"
       id="path33"
       inkscape:connector-curvature="0"
       sodipodi:nodetypes="scscccssscccccccsscsccccccsssscsccccccssccsccccccccccccccccccccccccccsscscccscccccccccccccccssccccssssssscssscsscssccccccscsccscccscccccccccccccscsscccsscsssccscccccssscscsccsccscccccccscccccccccccccscscscccccsccscscsccccccccccscsssscsssccccccssccsccccsccsscsssssccsssssccssscscccscsssccccccccccssccccccccscccccssscscccscccsccssssccssccsscscsccccccccccccsscccscsssccccccsccssccs" />
  </g>
</svg>
